# xmcd
#
# Track frame offsets: 
#        150
#        20913
#        35988
#        62320
#        78459
#        95459
#        113001
#        133942
#        154638
#        174195
#
# Disc length: 2503 seconds
#
# Revision: 3
# Processed by: cddbd v1.5.2PL0 Copyright (c) Steve Scherf et al.
# Submitted via: ExactAudioCopy v1.0b3
#
DISCID=7c09c50a
DTITLE=Karussell - Das einzige Leben
DYEAR=1980
DGENRE=Rock
TTITLE0=Jungs
TTITLE1=Wiedersehen im Traum
TTITLE2=Ein Leben lang
TTITLE3=Doch wenn die Hähne krähn
TTITLE4=Lieb ein Mädchen
TTITLE5=Halte durch
TTITLE6=Nämlich bin ich glücklich
TTITLE7=Das einzige Leben
TTITLE8=und der Wind endet nicht
TTITLE9=Wer die Rose ehrt
EXTD=
EXTT0=
EXTT1=
EXTT2=
EXTT3=
EXTT4=
EXTT5=
EXTT6=
EXTT7=
EXTT8=
EXTT9=
PLAYORDER=
